Coordinates
version=1
nRows=60
nColumns=12
inDegrees=yes

Units are S.I. units (second, meters, Newtons, ...)
Angles are in degrees

endheader
time	SC_y	SC_z	SC_x	AC_y	AC_z	AC_x	GH_y	GH_z	GH_yy	EL_x	PS_y
       0.0              -47.15          5.547          16.41          54.39         -12.67          19.04         -7.939         -11.22          122.8          24.72          128.9
   0.02792              -47.15          5.546          16.41          54.38         -12.67          19.03         -7.931         -11.22          122.8          24.73          128.9
   0.05583              -47.14          5.545          16.42          54.38         -12.67          19.03         -7.922         -11.22          122.7          24.75          128.9
   0.08375              -47.14          5.544          16.43          54.38         -12.67          19.02         -7.912         -11.22          122.7          24.77          128.9
    0.1117              -47.14          5.543          16.44          54.38         -12.67          19.01         -7.902         -11.22          122.7          24.78          128.8
    0.1396              -47.13          5.542          16.45          54.37         -12.66          19.01         -7.892         -11.22          122.6           24.8          128.8
    0.1675              -47.13          5.541          16.46          54.37         -12.66           19.0          -7.88         -11.22          122.6          24.82          128.8
    0.1954              -47.12           5.54          16.47          54.37         -12.66          18.99         -7.868         -11.22          122.6          24.85          128.8
    0.2233              -47.12          5.538          16.48          54.37         -12.66          18.99         -7.855         -11.22          122.5          24.87          128.7
    0.2513              -47.11          5.537          16.49          54.36         -12.66          18.98          -7.84         -11.22          122.5          24.89          128.7
    0.2792               -47.1          5.536           16.5          54.36         -12.66          18.97         -7.825         -11.22          122.4          24.92          128.7
    0.3071               -47.1          5.534          16.51          54.35         -12.66          18.96         -7.809         -11.22          122.4          24.95          128.6
     0.335              -47.09          5.532          16.53          54.35         -12.66          18.95         -7.791         -11.22          122.3          24.98          128.6
    0.3629              -47.08           5.53          16.54          54.35         -12.65          18.94         -7.772         -11.22          122.3          25.02          128.6
    0.3908              -47.07          5.528          16.56          54.34         -12.65          18.92         -7.752         -11.22          122.2          25.05          128.5
    0.4188              -47.06          5.526          16.58          54.34         -12.65          18.91         -7.729         -11.22          122.1          25.09          128.5
    0.4467              -47.05          5.524           16.6          54.33         -12.65           18.9         -7.705         -11.22          122.0          25.14          128.4
    0.4746              -47.04          5.521          16.62          54.32         -12.65          18.88         -7.679         -11.22          122.0          25.18          128.4
    0.5025              -47.03          5.518          16.64          54.32         -12.64          18.86          -7.65         -11.22          121.9          25.24          128.3
    0.5304              -47.01          5.515          16.67          54.31         -12.64          18.84         -7.618         -11.22          121.8          25.29          128.3
    0.5583               -47.0          5.512           16.7           54.3         -12.64          18.82         -7.583         -11.22          121.6          25.36          128.2
    0.5863              -46.98          5.508          16.73          54.29         -12.63           18.8         -7.545         -11.22          121.5          25.42          128.1
    0.6142              -46.96          5.504          16.76          54.28         -12.63          18.77         -7.503         -11.22          121.4           25.5          128.0
    0.6421              -46.94          5.499           16.8          54.27         -12.62          18.75         -7.456         -11.22          121.2          25.58          127.9
      0.67              -46.92          5.494          16.84          54.26         -12.62          18.72         -7.404         -11.22          121.1          25.68          127.8
    0.6979               -46.9          5.488          16.89          54.24         -12.61          18.68         -7.346         -11.22          120.9          25.78          127.7
    0.7259              -46.87          5.481          16.95          54.23         -12.61          18.64         -7.281         -11.22          120.7           25.9          127.6
    0.7538              -46.84          5.474           17.0          54.21          -12.6           18.6         -7.208         -11.22          120.4          26.03          127.4
    0.7817               -46.8          5.466          17.07          54.19         -12.59          18.55         -7.126         -11.22          120.2          26.18          127.2
    0.8096              -46.76          5.457          17.15          54.17         -12.58          18.49         -7.032         -11.22          119.8          26.35          127.0
    0.8375              -46.72          5.446          17.24          54.14         -12.57          18.43         -6.925         -11.23          119.5          26.54          126.8
    0.8654              -46.66          5.434          17.34          54.11         -12.56          18.35         -6.802         -11.23          119.1          26.76          126.6
    0.8934               -46.6           5.42          17.45          54.08         -12.55          18.27          -6.66         -11.23          118.6          27.01          126.3
    0.9213              -46.53          5.403          17.59          54.04         -12.53          18.17         -6.495         -11.23          118.1          27.31          125.9
    0.9492              -46.45          5.384          17.75          53.99         -12.52          18.05         -6.303         -11.23          117.5          27.65          125.5
    0.9771              -46.35          5.362          17.93          53.94          -12.5          17.92         -6.075         -11.23          116.7          28.06          125.1
     1.005              -46.24          5.335          18.15          53.87         -12.47          17.76         -5.805         -11.24          115.9          28.55          124.5
     1.033               -46.1          5.303          18.42           53.8         -12.44          17.56         -5.481         -11.24          114.8          29.13          123.8
     1.061              -45.93          5.264          18.74           53.7          -12.4          17.33          -5.09         -11.24          113.5          29.83          123.0
     1.089              -45.72          5.216          19.13          53.59         -12.36          17.04         -4.611         -11.25          112.0          30.69          122.0
     1.117              -45.47          5.158          19.61          53.45          -12.3          16.69         -4.021         -11.25          110.1          31.75          120.8
     1.145              -45.15          5.084          20.21          53.27         -12.24          16.24         -3.284         -11.26          107.7          33.07          119.3
     1.173              -44.76          4.992          20.97          53.05         -12.15          15.69         -2.357         -11.27          104.6          34.73          117.4
       1.2              -44.25          4.875          21.94          52.77         -12.04          14.98         -1.177         -11.28          100.8          36.85          115.0
     1.228               -43.6          4.725          23.17          52.41          -11.9          14.08          0.332         -11.29          95.89          39.56          111.8
     1.256              -42.77          4.533          24.75          51.94         -11.72          12.91          2.269         -11.31          89.58          43.04          107.8
     1.284              -41.71          4.287          26.78          51.35         -11.49          11.43          4.743         -11.33          81.53          47.48          102.7
     1.312              -40.37          3.978          29.32          50.61          -11.2          9.565          7.854         -11.36          71.41          53.06          96.31
      1.34              -38.74          3.602          32.42           49.7         -10.85          7.292          11.65          -11.4          59.07          59.86          88.48
     1.368              -36.86          3.165          36.01          48.65         -10.44          4.657          16.04         -11.44          44.77          67.75          79.41
     1.396              -34.82          2.692           39.9          47.51         -9.993          1.803           20.8         -11.48          29.29          76.29          69.59
     1.424              -32.77           2.22          43.79          46.37          -9.55          -1.05          25.56         -11.52          13.81          84.82          59.77
     1.452              -30.89          1.783          47.39          45.32         -9.141         -3.685          29.95         -11.56        -0.4946          92.71           50.7
      1.48              -29.26          1.407          50.49          44.42         -8.787         -5.959          33.74          -11.6         -12.83          99.51          42.87
     1.508              -27.92          1.098          53.03          43.67         -8.498         -7.825          36.85         -11.63         -22.95          105.1          36.45
     1.535              -26.86         0.8519          55.05          43.08         -8.267         -9.308          39.33         -11.65         -31.01          109.5          31.34
     1.563              -26.03         0.6595          56.64          42.62         -8.087         -10.47          41.26         -11.67         -37.31          113.0          27.34
     1.591              -25.38         0.5096          57.87          42.25         -7.946         -11.37          42.77         -11.68         -42.22          115.7          24.22
     1.619              -24.88         0.3925          58.84          41.97         -7.836         -12.08          43.95         -11.69         -46.06          117.8          21.79
     1.647              -24.48         0.3003          59.59          41.75          -7.75         -12.64          44.88          -11.7         -49.08          119.5          19.88
